<svg width="14" height="14" viewBox="0 0 14 14" fill="none" xmlns="http://www.w3.org/2000/svg">
<path d="M5 5V3.13333C5 2.38667 5 2.01333 5.14533 1.728C5.27333 1.47667 5.47667 1.27333 5.728 1.14533C6.01333 1 6.38667 1 7.13333 1H10.8667C11.6133 1 11.9867 1 12.272 1.14533C12.5229 1.27316 12.7268 1.47713 12.8547 1.728C13 2.01333 13 2.38667 13 3.13333V6.86667C13 7.61333 13 7.98667 12.8547 8.272C12.7268 8.52282 12.5228 8.72676 12.272 8.85467C11.9867 9 11.6133 9 10.8687 9H9M5 5H3.13333C2.38667 5 2.01333 5 1.728 5.14533C1.4771 5.27313 1.27313 5.4771 1.14533 5.728C1 6.01333 1 6.38667 1 7.13333V10.8667C1 11.6133 1 11.9867 1.14533 12.272C1.27316 12.5229 1.47713 12.7268 1.728 12.8547C2.01267 13 2.386 13 3.13133 13H6.86933C7.614 13 7.98667 13 8.272 12.8547C8.52287 12.7268 8.72684 12.5229 8.85467 12.272C9 11.9867 9 11.614 9 10.8687V9M5 5H6.86667C7.61333 5 7.98667 5 8.272 5.14533C8.52287 5.27316 8.72684 5.47713 8.85467 5.728C9 6.01267 9 6.386 9 7.13133V9" stroke="black" stroke-linecap="round" stroke-linejoin="round"/>
</svg>
