<svg width="64" height="64" viewBox="0 0 64 64" fill="none" xmlns="http://www.w3.org/2000/svg">
<g clip-path="url(#clip0_542_4705)">
<path d="M32 64C49.6731 64 64 49.6731 64 32C64 14.3269 49.6731 0 32 0C14.3269 0 0 14.3269 0 32C0 49.6731 14.3269 64 32 64Z" fill="#E7EBF3"/>
<path d="M32 50.1839C30.84 50.1839 29.848 49.7759 29.016 48.9519C28.184 48.1279 27.776 47.1359 27.792 45.9839C27.784 44.8399 28.192 43.8559 29.016 43.0399C29.848 42.2239 30.84 41.8159 32 41.8159C33.16 41.8159 34.088 42.2239 34.928 43.0399C35.768 43.8559 36.2 44.8399 36.208 45.9839C36.2 46.7519 35.992 47.4559 35.6 48.0959C35.208 48.7359 34.696 49.2399 34.064 49.6239C33.432 50.0079 32.744 50.1919 31.992 50.1919L32 50.1839ZM35.896 13.8159L35.216 38.9599H28.8L28.096 13.8159H35.896Z" fill="#B8C2D1"/>
</g>
<defs>
<clipPath id="clip0_542_4705">
<rect width="64" height="64" fill="white"/>
</clipPath>
</defs>
</svg>
